<svg width="80" height="80" viewBox="0 0 80 80" fill="none" xmlns="http://www.w3.org/2000/svg">
<path d="M40 33.3333C53.2533 33.3333 66.6667 28.7533 66.6667 20C66.6667 11.2467 53.2533 6.66666 40 6.66666C26.7467 6.66666 13.3333 11.2467 13.3333 20C13.3333 28.7533 26.7467 33.3333 40 33.3333Z" fill="#D03F3F"/>
<path d="M13.3333 33.3333C13.3333 42.0867 26.7467 46.6667 40 46.6667C53.2533 46.6667 66.6667 42.0867 66.6667 33.3333V26.6667C66.6667 35.42 53.2533 40 40 40C26.7467 40 13.3333 35.42 13.3333 26.6667V33.3333Z" fill="#D03F3F"/>
<path d="M13.3333 46.6667C13.3333 55.42 26.7467 60 40 60C53.2533 60 66.6667 55.42 66.6667 46.6667V40C66.6667 48.7533 53.2533 53.3333 40 53.3333C26.7467 53.3333 13.3333 48.7533 13.3333 40V46.6667Z" fill="#D03F3F"/>
<path d="M13.3333 60C13.3333 68.7533 26.7467 73.3333 40 73.3333C53.2533 73.3333 66.6667 68.7533 66.6667 60V53.3333C66.6667 62.0867 53.2533 66.6667 40 66.6667C26.7467 66.6667 13.3333 62.0867 13.3333 53.3333V60Z" fill="#D03F3F"/>
</svg>
