<svg width="68" height="68" viewBox="0 0 68 68" fill="none" xmlns="http://www.w3.org/2000/svg">
<path d="M33.9666 0.666656C15.5666 0.666656 0.633301 15.6 0.633301 34C0.633301 52.4 15.5666 67.3333 33.9666 67.3333C52.3666 67.3333 67.2999 52.4 67.2999 34C67.2999 15.6 52.3666 0.666656 33.9666 0.666656ZM45.9999 21.8C49.5666 21.8 52.4333 24.6666 52.4333 28.2333C52.4333 31.8 49.5666 34.6666 45.9999 34.6666C42.4333 34.6666 39.5666 31.8 39.5666 28.2333C39.5333 24.6666 42.4333 21.8 45.9999 21.8ZM26 16.5333C30.3333 16.5333 33.8666 20.0666 33.8666 24.4C33.8666 28.7333 30.3333 32.2666 26 32.2666C21.6666 32.2666 18.1333 28.7333 18.1333 24.4C18.1333 20.0333 21.6333 16.5333 26 16.5333ZM26 46.9666V59.4666C18 56.9666 11.6666 50.8 8.86663 42.9333C12.3666 39.2 21.1 37.3 26 37.3C27.7666 37.3 30 37.5666 32.3333 38.0333C26.8666 40.9333 26 44.7666 26 46.9666ZM33.9666 60.6666C33.0666 60.6666 32.1999 60.6333 31.3333 60.5333V46.9666C31.3333 42.2333 41.1333 39.8666 45.9999 39.8666C49.5666 39.8666 55.7333 41.1666 58.7999 43.7C54.8999 53.6 45.2666 60.6666 33.9666 60.6666Z" fill="#5EDE91"/>
</svg>
